<?xml version="1.0" ?><svg viewBox="0 0 64 64" xmlns="http://www.w3.org/2000/svg"><title/><g id="stars"><circle cx="25.5" cy="27.5" r="21.5" style="fill:#a9f8f6"/><polygon points="10 5.842 11.823 9.177 15.158 11 11.823 12.823 10 16.158 8.177 12.823 4.842 11 8.177 9.177 10 5.842" style="fill:#9dc1e4;stroke:#4c241d;stroke-linecap:round;stroke-linejoin:round;stroke-width:2px"/><polygon points="31 52.154 32.713 55.287 35.846 57 32.713 58.713 31 61.846 29.287 58.713 26.154 57 29.287 55.287 31 52.154" style="fill:#f53e28;stroke:#4c241d;stroke-linecap:round;stroke-linejoin:round;stroke-width:2px"/><polygon points="6 49.012 7.41 51.59 9.988 53 7.41 54.41 6 56.988 4.59 54.41 2.012 53 4.59 51.59 6 49.012" style="fill:#ffce56;stroke:#4c241d;stroke-linecap:round;stroke-linejoin:round;stroke-width:2px"/><polygon points="20 17.236 24.51 26.373 34.594 27.839 27.297 34.952 29.02 44.995 20 40.253 10.98 44.995 12.703 34.952 5.406 27.839 15.49 26.373 20 17.236" style="fill:#bd53b5;stroke:#4c241d;stroke-linecap:round;stroke-linejoin:round;stroke-width:2px"/><polygon points="47 2.727 50.7 10.225 58.975 11.427 52.987 17.263 54.401 25.504 47 21.613 39.599 25.504 41.013 17.263 35.025 11.427 43.3 10.225 47 2.727" style="fill:#ffce56;stroke:#4c241d;stroke-linecap:round;stroke-linejoin:round;stroke-width:2px"/><polygon points="47 27.727 50.7 35.225 58.975 36.427 52.987 42.263 54.401 50.504 47 46.613 39.599 50.504 41.013 42.263 35.025 36.427 43.3 35.225 47 27.727" style="fill:#02eae6;stroke:#4c241d;stroke-linecap:round;stroke-linejoin:round;stroke-width:2px"/></g></svg>